<svg width="24" height="24" viewBox="0 0 24 24" fill="none" xmlns="http://www.w3.org/2000/svg">
<path fill-rule="evenodd" clip-rule="evenodd" d="M14.4551 2.474C13.5127 2.0954 12.4955 1.93987 11.483 2.01959C10.4705 2.0993 9.49019 2.41209 8.61865 2.9335C7.7471 3.45492 7.00795 4.17084 6.45898 5.02529C5.91 5.87975 5.56607 6.84959 5.45408 7.859L5.20208 10.125L5.19608 10.179C5.08327 11.1623 4.76323 12.1105 4.25708 12.961L4.22908 13.008L3.65108 13.971L3.62708 14.011C3.38508 14.414 3.16708 14.779 3.02108 15.088C2.87308 15.402 2.71408 15.828 2.79108 16.312C2.86619 16.7894 3.11166 17.2235 3.48208 17.534C3.85808 17.848 4.30408 17.931 4.65008 17.966C4.99008 18 5.41608 18 5.88508 18H18.1151C18.5841 18 19.0091 18 19.3501 17.966C19.6951 17.931 20.1421 17.848 20.5171 17.534C20.8879 17.2237 21.1337 16.7896 21.2091 16.312C21.2861 15.829 21.1271 15.402 20.9791 15.088C20.8331 14.778 20.6151 14.414 20.3731 14.011L20.3491 13.971L19.7711 13.008L19.7431 12.961C19.3651 12.326 19.09 11.6351 18.9281 10.914C18.2509 11.0417 17.5547 11.0281 16.8831 10.874C17.0677 11.9723 17.4546 13.0269 18.0241 13.984L18.0561 14.037L18.6341 15C18.9071 15.456 19.0721 15.733 19.1701 15.94L19.1841 15.972L19.1491 15.976C18.9221 15.999 18.5991 16 18.0681 16H5.93208C5.40108 16 5.07808 15.999 4.85008 15.976L4.81608 15.972L4.83008 15.94C4.92808 15.733 5.09308 15.456 5.36608 15L5.94408 14.037L5.97608 13.984C6.62677 12.8904 7.03815 11.6713 7.18308 10.407L7.19008 10.347L7.44208 8.08C7.51632 7.41042 7.73718 6.76542 8.08894 6.19086C8.4407 5.6163 8.91473 5.12629 9.47732 4.75569C10.0399 4.38508 10.6772 4.14298 11.344 4.04659C12.0108 3.95021 12.6906 4.0019 13.3351 4.198C13.585 3.55196 13.9664 2.96489 14.4551 2.474ZM16.9821 4.278C16.6204 4.4918 16.3352 4.81408 16.167 5.19911C15.9988 5.58414 15.9562 6.01236 16.0451 6.423C16.1651 6.64834 16.2667 6.884 16.3501 7.13C16.5874 7.4769 16.9279 7.74022 17.3234 7.88257C17.7189 8.02492 18.1491 8.03907 18.5531 7.923L18.5461 7.859C18.4006 6.53417 17.8551 5.28508 16.9821 4.278Z" fill="#4CB3FF"/>
<path d="M9.10205 17.665C9.27305 18.622 9.65005 19.467 10.1741 20.07C10.6981 20.673 11.3401 21 12.0001 21C12.6601 21 13.3021 20.673 13.8261 20.07C14.3501 19.467 14.7261 18.622 14.8981 17.665" stroke="#4CB3FF" stroke-width="2" stroke-linecap="round"/>
<path d="M18 8.5C19.3807 8.5 20.5 7.38071 20.5 6C20.5 4.61929 19.3807 3.5 18 3.5C16.6193 3.5 15.5 4.61929 15.5 6C15.5 7.38071 16.6193 8.5 18 8.5Z" fill="#4CB3FF" stroke="#4CB3FF"/>
</svg>
