<svg width="50" height="50" viewBox="0 0 50 50" fill="none" xmlns="http://www.w3.org/2000/svg">
<g clip-path="url(#clip0_34_23)">
<path fill-rule="evenodd" clip-rule="evenodd" d="M25.9917 0.0205147C21.0511 -0.174897 16.1635 1.09909 11.947 3.68139C7.7305 6.26368 4.37438 10.0383 2.30306 14.5279C0.231732 19.0176 -0.461774 24.0206 0.310233 28.9044C1.08224 33.7882 3.28509 38.3334 6.64022 41.9652C9.99536 45.5971 14.3521 48.1525 19.1595 49.3083C23.967 50.4641 29.0092 50.1685 33.6486 48.4587C38.288 46.7489 42.3162 43.7019 45.2238 39.7028C48.1315 35.7037 49.7881 30.9322 49.984 25.9916C50.1144 22.7109 49.5972 19.4366 48.462 16.3557C47.3267 13.2749 45.5957 10.4478 43.3677 8.03609C41.1397 5.62435 38.4584 3.67515 35.477 2.29982C32.4956 0.924494 29.2725 0.149978 25.9917 0.0205147ZM36.5437 36.6442C36.3477 36.9882 36.0233 37.2403 35.6415 37.3453C35.2598 37.4502 34.8521 37.3994 34.5078 37.204C27.8344 33.4185 19.9709 32.3132 12.5125 34.1125C12.1277 34.2058 11.7216 34.1424 11.3835 33.9363C11.0454 33.7302 10.803 33.3982 10.7097 33.0134C10.6164 32.6286 10.6797 32.2224 10.8858 31.8843C11.092 31.5462 11.4239 31.3039 11.8088 31.2105C20.007 29.2326 28.6507 30.4474 35.9862 34.6083C36.3301 34.8043 36.5822 35.1288 36.6872 35.5105C36.7922 35.8922 36.7414 36.2999 36.546 36.6442H36.5437ZM39.8295 30.0818C39.5844 30.5341 39.1697 30.8707 38.6766 31.0176C38.1835 31.1646 37.6523 31.1099 37.1995 30.8655C29.3929 26.6584 20.3378 25.3858 11.674 27.2781C11.1713 27.3887 10.6452 27.2951 10.2116 27.0178C9.99684 26.8805 9.81126 26.7023 9.66541 26.4933C9.51957 26.2843 9.41632 26.0486 9.36155 25.7997C9.30679 25.5508 9.30159 25.2935 9.34625 25.0426C9.39091 24.7917 9.48455 24.552 9.62183 24.3373C9.89908 23.9036 10.3372 23.5979 10.8399 23.4873C20.4132 21.3928 30.4201 22.7985 39.0458 27.4495C39.27 27.5706 39.4681 27.7348 39.6288 27.9326C39.7896 28.1303 39.9098 28.3578 39.9826 28.6021C40.0553 28.8463 40.0793 29.1025 40.053 29.356C40.0268 29.6095 39.9508 29.8553 39.8295 30.0795V30.0818ZM43.4718 22.683C43.3271 22.9614 43.129 23.2086 42.8887 23.4104C42.6485 23.6122 42.3708 23.7647 42.0716 23.8591C41.7724 23.9535 41.4575 23.9881 41.1449 23.9607C40.8324 23.9334 40.5282 23.8447 40.25 23.6998C31.1663 18.9905 20.7462 17.5264 10.7165 19.5503C10.0996 19.6672 9.46148 19.5365 8.94026 19.1864C8.41903 18.8362 8.0567 18.2949 7.93171 17.6796C7.80672 17.0642 7.92913 16.4244 8.27245 15.8987C8.61576 15.373 9.15234 15.0036 9.766 14.8706C20.8675 12.63 32.4014 14.2513 42.455 19.4657C43.0167 19.7579 43.4393 20.2612 43.63 20.865C43.8207 21.4687 43.7638 22.1235 43.4718 22.6853V22.683Z" fill="white"/>
</g>
<defs>
<clipPath id="clip0_34_23">
<rect width="50" height="50" fill="white"/>
</clipPath>
</defs>
</svg>
